<?xml version="1.0" encoding="UTF-8"?>
<svg width="26px" height="18px" viewBox="0 0 26 18" version="1.1" xmlns="http://www.w3.org/2000/svg" xmlns:xlink="http://www.w3.org/1999/xlink">
    <title>CC2595C4-6389-4032-8056-C6299D8C75AB</title>
    <defs>
        <path d="M24.3426866,17.5 C25.1199243,17.5 25.75,16.8711915 25.75,16.0833333 L25.75,16.0833333 C25.75,15.3009299 25.1196594,14.6666667 24.3426866,14.6666667 L1.65731338,14.6666667 C0.880075664,14.6666667 0.25,15.2954752 0.25,16.0833333 L0.25,16.0833333 C0.25,16.8657367 0.880340576,17.5 1.65731338,17.5 L24.3426866,17.5 Z M24.3426866,10.4166667 C25.1199243,10.4166667 25.75,9.78785817 25.75,9 L25.75,9 C25.75,8.2175966 25.1196594,7.58333333 24.3426866,7.58333333 L1.65731338,7.58333333 C0.880075664,7.58333333 0.25,8.21214183 0.25,9 L0.25,9 C0.25,9.7824034 0.880340576,10.4166667 1.65731338,10.4166667 L24.3426866,10.4166667 Z M0.25,1.91666667 C0.25,2.69907006 0.880340576,3.33333333 1.65731338,3.33333333 L24.3426866,3.33333333 C25.1199243,3.33333333 25.75,2.70452483 25.75,1.91666667 L25.75,1.91666667 C25.75,1.13426327 25.1196594,0.5 24.3426866,0.5 L1.65731338,0.5 C0.880075664,0.5 0.25,1.1288085 0.25,1.91666667 L0.25,1.91666667 Z" id="path-1"></path>
    </defs>
    <g id="Page-1" stroke="none" stroke-width="1" fill="none" fill-rule="evenodd">
        <g id="Home---Mobile" transform="translate(-19.000000, -18.000000)">
            <g id="menu_icon" transform="translate(19.000000, 18.000000)">
                <mask id="mask-2" fill="white">
                    <use xlink:href="#path-1"></use>
                </mask>
                <use id="Mask" fill="#42415B" xlink:href="#path-1"></use>
            </g>
        </g>
    </g>
</svg>