<?xml version="1.0" encoding="UTF-8"?>
<svg width="76px" height="27px" viewBox="0 0 76 27" version="1.1" xmlns="http://www.w3.org/2000/svg" xmlns:xlink="http://www.w3.org/1999/xlink">
    <title>C43C9501-8416-4E90-BDE4-B925887880B5</title>
    <g id="Page-1" stroke="none" stroke-width="1" fill="none" fill-rule="evenodd">
        <g id="Home---Mobile" transform="translate(-65.000000, -14.000000)">
            <g id="logo-placeholder-mobile" transform="translate(65.000000, 14.000000)">
                <g id="Logo" transform="translate(31.558824, 6.500000)" fill="#42415B" fill-rule="nonzero">
                    <g id="logo---type" transform="translate(0.217649, 0.000000)">
                        <path d="M7.91216373,12.2777774 L7.91216373,10.2890566 L2.63188434,10.2890566 L2.63188434,0.262933163 L0.14509656,0.262933163 L0.14509656,12.2777774 L7.91216373,12.2777774 Z M13.5986185,12.4428165 C14.6099122,12.4428165 15.5065373,12.2007592 16.2884939,11.7166446 C17.0704505,11.23253 17.6714242,10.5448672 18.0914151,9.65365619 C18.5114059,8.76244522 18.7214013,7.72544974 18.7214013,6.54266974 L18.7214013,6.54266974 L18.7214013,6.00629277 C18.7214013,4.82901407 18.5072612,3.79064326 18.0789811,2.89118034 C17.650701,1.99171741 17.0455826,1.30130397 16.263626,0.819940021 C15.4816694,0.33857607 14.5878074,0.0978940939 13.5820399,0.0978940939 C12.5762724,0.0978940939 11.6824103,0.33857607 10.9004537,0.819940021 C10.1184971,1.30130397 9.51337876,1.99171741 9.08509864,2.89118034 C8.65681852,3.79064326 8.44267846,4.83176472 8.44267846,6.01454472 L8.44267846,6.01454472 L8.44267846,6.60868537 C8.44820466,7.76395885 8.66648936,8.78582575 9.09753258,9.67428608 C9.52857579,10.5627464 10.1364573,11.2462832 10.921177,11.7248965 C11.7058967,12.2035098 12.5983772,12.4428165 13.5986185,12.4428165 Z M13.5986185,10.4128359 C12.7475844,10.4128359 12.0954934,10.0745058 11.6423454,9.39784564 C11.1891974,8.72118545 10.9626234,7.76946015 10.9626234,6.54266974 L10.9626234,6.54266974 L10.9626234,5.95678105 C10.9681496,4.70798542 11.1974867,3.7603861 11.6506347,3.11398308 C12.1037827,2.46758006 12.7475844,2.14437855 13.5820399,2.14437855 C14.4220215,2.14437855 15.0685864,2.47170604 15.5217343,3.12636101 C15.9748823,3.78101599 16.2014563,4.73824259 16.2014563,5.99804081 L16.2014563,5.99804081 L16.2014563,6.58392951 C16.1959301,7.83272513 15.9693562,8.7830751 15.5217343,9.43497943 C15.0741125,10.0868837 14.4330739,10.4128359 13.5986185,10.4128359 Z M25.4605962,12.4428165 C26.4553113,12.4428165 27.3616073,12.2956566 28.1794842,12.0013369 C28.997361,11.7070173 29.6301104,11.2930443 30.0777322,10.759418 L30.0777322,10.759418 L30.0777322,5.965033 L25.3279675,5.965033 L25.3279675,7.78871471 L27.5909444,7.78871471 L27.5909444,9.85995503 C27.1930583,10.2560488 26.5271518,10.4540957 25.5932249,10.4540957 C24.6648241,10.4540957 23.9602342,10.1322695 23.4794553,9.48861712 C22.9986763,8.84496475 22.7582868,7.89323946 22.7582868,6.63344123 L22.7582868,6.63344123 L22.7582868,5.86600956 C22.763813,4.61721393 22.9876239,3.67649124 23.4297195,3.04384148 C23.8718151,2.41119171 24.5156168,2.09486683 25.3611247,2.09486683 C26.0242681,2.09486683 26.545112,2.2544046 26.9236563,2.57348013 C27.3022007,2.89255566 27.5467348,3.39592482 27.6572587,4.08358761 L27.6572587,4.08358761 L30.0777322,4.08358761 C29.9285249,2.78528027 29.450509,1.79642118 28.6436845,1.11701035 C27.8368601,0.437599511 26.7178056,0.0978940939 25.286521,0.0978940939 C24.2586488,0.0978940939 23.3620236,0.330324116 22.5966456,0.795184161 C21.8312676,1.26004421 21.2454909,1.93120309 20.8393156,2.8086608 C20.4331402,3.68611852 20.2300526,4.72448933 20.2300526,5.92377323 L20.2300526,5.92377323 L20.2300526,6.74071662 C20.2411049,7.90699271 20.4607712,8.92198299 20.8890513,9.78568745 C21.3173314,10.6493919 21.9252129,11.3081729 22.7126957,11.7620303 C23.5001785,12.2158877 24.4161453,12.4428165 25.4605962,12.4428165 Z M36.8832414,12.4428165 C37.8945351,12.4428165 38.7911603,12.2007592 39.5731169,11.7166446 C40.3550735,11.23253 40.9560472,10.5448672 41.376038,9.65365619 C41.7960288,8.76244522 42.0060242,7.72544974 42.0060242,6.54266974 L42.0060242,6.54266974 L42.0060242,6.00629277 C42.0060242,4.82901407 41.7918842,3.79064326 41.3636041,2.89118034 C40.9353239,1.99171741 40.3302056,1.30130397 39.548249,0.819940021 C38.7662924,0.33857607 37.8724303,0.0978940939 36.8666628,0.0978940939 C35.8608953,0.0978940939 34.9670333,0.33857607 34.1850767,0.819940021 C33.4031201,1.30130397 32.7980017,1.99171741 32.3697216,2.89118034 C31.9414415,3.79064326 31.7273014,4.83176472 31.7273014,6.01454472 L31.7273014,6.01454472 L31.7273014,6.60868537 C31.7328276,7.76395885 31.9511123,8.78582575 32.3821555,9.67428608 C32.8131987,10.5627464 33.4210802,11.2462832 34.2057999,11.7248965 C34.9905196,12.2035098 35.8830001,12.4428165 36.8832414,12.4428165 Z M36.8832414,10.4128359 C36.0322074,10.4128359 35.3801163,10.0745058 34.9269683,9.39784564 C34.4738204,8.72118545 34.2472464,7.76946015 34.2472464,6.54266974 L34.2472464,6.54266974 L34.2472464,5.95678105 C34.2527725,4.70798542 34.4821096,3.7603861 34.9352576,3.11398308 C35.3884056,2.46758006 36.0322074,2.14437855 36.8666628,2.14437855 C37.7066445,2.14437855 38.3532093,2.47170604 38.8063573,3.12636101 C39.2595053,3.78101599 39.4860793,4.73824259 39.4860793,5.99804081 L39.4860793,5.99804081 L39.4860793,6.58392951 C39.4805531,7.83272513 39.2539791,8.7830751 38.8063573,9.43497943 C38.3587355,10.0868837 37.7176969,10.4128359 36.8832414,10.4128359 Z" id="LOGO"></path>
                    </g>
                </g>
                <g id="Logo---sign">
                    <rect id="Rectangle" fill="#42415B" x="0" y="0" width="26.1176471" height="26" rx="13"></rect>
                    <path d="M13.0588235,19.1388889 C14.7515449,18.6050725 18.1372549,16.4698068 18.1372549,14.6014493 L18.1372549,9.62249638 C18.1372549,9.62249638 16.4444444,8.70203462 13.0588235,6.86111111 C9.67320261,8.70203462 7.98039216,9.62249638 7.98039216,9.62249638 L7.98039216,14.6014493 C7.98039216,16.4698068 11.3661022,18.6050725 13.0588235,19.1388889 Z" id="Stroke-1" fill="#FFFFFF"></path>
                    <path d="M13.0588235,17.3333333 C14.2679102,16.9565217 16.6862745,15.4492754 16.6862745,14.1304348 L16.6862745,10.6158798 C16.6862745,10.6158798 15.4771242,9.96614209 13.0588235,8.66666667 C10.6405229,9.96614209 9.43137255,10.6158798 9.43137255,10.6158798 L9.43137255,14.1304348 C9.43137255,15.4492754 11.8497368,16.9565217 13.0588235,17.3333333 Z" id="Stroke-1" fill="#42415B"></path>
                </g>
            </g>
        </g>
    </g>
</svg>